<mxfile host="app.diagrams.net" modified="2023-10-10T20:00:46.695Z" agent="Mozilla/5.0 (Macintosh; Intel Mac OS X 10_15_7) AppleWebKit/537.36 (KHTML, like Gecko) Chrome/117.0.0.0 Safari/537.36" etag="Sqfkwc1QqEinm6PX1eYd" version="21.7.5" type="device">
  <diagram name="Strona-1" id="KhlNz15Z5ZZH0HqRky4t">
    <mxGraphModel dx="1434" dy="790" grid="1" gridSize="10" guides="1" tooltips="1" connect="1" arrows="1" fold="1" page="1" pageScale="1" pageWidth="827" pageHeight="1169" math="0" shadow="0">
      <root>
        <mxCell id="0" />
        <mxCell id="1" parent="0" />
        <mxCell id="6VvXkrOFJKi1Wz3Xu7Vn-1" value="" style="image;html=1;image=img/lib/clip_art/networking/Router_Icon_128x128.png" vertex="1" parent="1">
          <mxGeometry x="190" y="90" width="80" height="80" as="geometry" />
        </mxCell>
        <mxCell id="6VvXkrOFJKi1Wz3Xu7Vn-2" value="" style="image;html=1;image=img/lib/clip_art/networking/Router_Icon_128x128.png" vertex="1" parent="1">
          <mxGeometry x="334" y="260" width="80" height="80" as="geometry" />
        </mxCell>
        <mxCell id="6VvXkrOFJKi1Wz3Xu7Vn-3" value="" style="image;html=1;image=img/lib/clip_art/networking/Router_Icon_128x128.png" vertex="1" parent="1">
          <mxGeometry x="60" y="340" width="80" height="80" as="geometry" />
        </mxCell>
        <mxCell id="6VvXkrOFJKi1Wz3Xu7Vn-4" value="" style="image;html=1;image=img/lib/clip_art/networking/Router_Icon_128x128.png" vertex="1" parent="1">
          <mxGeometry x="590" y="460" width="80" height="80" as="geometry" />
        </mxCell>
        <mxCell id="6VvXkrOFJKi1Wz3Xu7Vn-5" value="" style="image;html=1;image=img/lib/clip_art/networking/Router_Icon_128x128.png" vertex="1" parent="1">
          <mxGeometry x="670" y="100" width="80" height="80" as="geometry" />
        </mxCell>
        <mxCell id="6VvXkrOFJKi1Wz3Xu7Vn-6" value="" style="image;html=1;image=img/lib/clip_art/networking/Router_Icon_128x128.png" vertex="1" parent="1">
          <mxGeometry x="390" y="560" width="80" height="80" as="geometry" />
        </mxCell>
        <mxCell id="6VvXkrOFJKi1Wz3Xu7Vn-7" value="" style="image;html=1;image=img/lib/clip_art/networking/Router_Icon_128x128.png" vertex="1" parent="1">
          <mxGeometry x="200" y="510" width="80" height="80" as="geometry" />
        </mxCell>
        <mxCell id="6VvXkrOFJKi1Wz3Xu7Vn-8" value="" style="image;html=1;image=img/lib/clip_art/networking/Router_Icon_128x128.png" vertex="1" parent="1">
          <mxGeometry x="500" y="320" width="80" height="80" as="geometry" />
        </mxCell>
        <mxCell id="6VvXkrOFJKi1Wz3Xu7Vn-9" value="Punkt A" style="text;html=1;strokeColor=none;fillColor=none;align=center;verticalAlign=middle;whiteSpace=wrap;rounded=0;" vertex="1" parent="1">
          <mxGeometry x="80" y="30" width="60" height="30" as="geometry" />
        </mxCell>
        <mxCell id="6VvXkrOFJKi1Wz3Xu7Vn-10" value="" style="image;points=[];aspect=fixed;html=1;align=center;shadow=0;dashed=0;image=img/lib/allied_telesis/computer_and_terminals/Personal_Computer.svg;" vertex="1" parent="1">
          <mxGeometry x="87.19999999999999" y="60" width="45.6" height="61.800000000000004" as="geometry" />
        </mxCell>
        <mxCell id="6VvXkrOFJKi1Wz3Xu7Vn-11" value="" style="image;points=[];aspect=fixed;html=1;align=center;shadow=0;dashed=0;image=img/lib/allied_telesis/computer_and_terminals/Personal_Computer.svg;" vertex="1" parent="1">
          <mxGeometry x="710" y="554" width="45.6" height="61.8" as="geometry" />
        </mxCell>
        <mxCell id="6VvXkrOFJKi1Wz3Xu7Vn-12" value="Punkt B" style="text;html=1;strokeColor=none;fillColor=none;align=center;verticalAlign=middle;whiteSpace=wrap;rounded=0;" vertex="1" parent="1">
          <mxGeometry x="710" y="500" width="60" height="30" as="geometry" />
        </mxCell>
        <mxCell id="6VvXkrOFJKi1Wz3Xu7Vn-13" value="" style="endArrow=none;dashed=1;html=1;rounded=0;" edge="1" parent="1" source="6VvXkrOFJKi1Wz3Xu7Vn-2" target="6VvXkrOFJKi1Wz3Xu7Vn-8">
          <mxGeometry width="50" height="50" relative="1" as="geometry">
            <mxPoint x="390" y="430" as="sourcePoint" />
            <mxPoint x="440" y="380" as="targetPoint" />
          </mxGeometry>
        </mxCell>
        <mxCell id="6VvXkrOFJKi1Wz3Xu7Vn-14" value="" style="endArrow=none;dashed=1;html=1;rounded=0;entryX=0.013;entryY=0.6;entryDx=0;entryDy=0;entryPerimeter=0;" edge="1" parent="1" target="6VvXkrOFJKi1Wz3Xu7Vn-2">
          <mxGeometry width="50" height="50" relative="1" as="geometry">
            <mxPoint x="248" y="150" as="sourcePoint" />
            <mxPoint x="334" y="182" as="targetPoint" />
          </mxGeometry>
        </mxCell>
        <mxCell id="6VvXkrOFJKi1Wz3Xu7Vn-15" value="" style="endArrow=none;dashed=1;html=1;rounded=0;entryX=0;entryY=0.5;entryDx=0;entryDy=0;" edge="1" parent="1" target="6VvXkrOFJKi1Wz3Xu7Vn-5">
          <mxGeometry width="50" height="50" relative="1" as="geometry">
            <mxPoint x="390" y="280" as="sourcePoint" />
            <mxPoint x="476" y="410" as="targetPoint" />
          </mxGeometry>
        </mxCell>
        <mxCell id="6VvXkrOFJKi1Wz3Xu7Vn-16" value="" style="endArrow=none;dashed=1;html=1;rounded=0;exitX=0.988;exitY=0.613;exitDx=0;exitDy=0;exitPerimeter=0;" edge="1" parent="1" source="6VvXkrOFJKi1Wz3Xu7Vn-7" target="6VvXkrOFJKi1Wz3Xu7Vn-6">
          <mxGeometry width="50" height="50" relative="1" as="geometry">
            <mxPoint x="270" y="550" as="sourcePoint" />
            <mxPoint x="366" y="680" as="targetPoint" />
          </mxGeometry>
        </mxCell>
        <mxCell id="6VvXkrOFJKi1Wz3Xu7Vn-17" value="" style="endArrow=none;dashed=1;html=1;rounded=0;entryX=0;entryY=0.5;entryDx=0;entryDy=0;exitX=1;exitY=0.5;exitDx=0;exitDy=0;" edge="1" parent="1" source="6VvXkrOFJKi1Wz3Xu7Vn-3" target="6VvXkrOFJKi1Wz3Xu7Vn-7">
          <mxGeometry width="50" height="50" relative="1" as="geometry">
            <mxPoint x="124" y="410" as="sourcePoint" />
            <mxPoint x="220" y="540" as="targetPoint" />
          </mxGeometry>
        </mxCell>
        <mxCell id="6VvXkrOFJKi1Wz3Xu7Vn-18" value="" style="endArrow=none;dashed=1;html=1;rounded=0;exitX=1;exitY=0.5;exitDx=0;exitDy=0;" edge="1" parent="1">
          <mxGeometry width="50" height="50" relative="1" as="geometry">
            <mxPoint x="370" y="320" as="sourcePoint" />
            <mxPoint x="240" y="530" as="targetPoint" />
          </mxGeometry>
        </mxCell>
        <mxCell id="6VvXkrOFJKi1Wz3Xu7Vn-19" value="" style="endArrow=none;dashed=1;html=1;rounded=0;entryX=1;entryY=0.375;entryDx=0;entryDy=0;entryPerimeter=0;" edge="1" parent="1" target="6VvXkrOFJKi1Wz3Xu7Vn-3">
          <mxGeometry width="50" height="50" relative="1" as="geometry">
            <mxPoint x="220.86956521739125" y="150" as="sourcePoint" />
            <mxPoint x="130" y="340" as="targetPoint" />
          </mxGeometry>
        </mxCell>
        <mxCell id="6VvXkrOFJKi1Wz3Xu7Vn-20" value="" style="endArrow=none;dashed=1;html=1;rounded=0;exitX=0.5;exitY=0.625;exitDx=0;exitDy=0;exitPerimeter=0;" edge="1" parent="1" source="6VvXkrOFJKi1Wz3Xu7Vn-5">
          <mxGeometry width="50" height="50" relative="1" as="geometry">
            <mxPoint x="659.8695652173913" y="180" as="sourcePoint" />
            <mxPoint x="570" y="370" as="targetPoint" />
          </mxGeometry>
        </mxCell>
        <mxCell id="6VvXkrOFJKi1Wz3Xu7Vn-21" value="" style="endArrow=none;dashed=1;html=1;rounded=0;exitX=0;exitY=0.5;exitDx=0;exitDy=0;" edge="1" parent="1" source="6VvXkrOFJKi1Wz3Xu7Vn-4">
          <mxGeometry width="50" height="50" relative="1" as="geometry">
            <mxPoint x="720" y="160" as="sourcePoint" />
            <mxPoint x="570" y="380" as="targetPoint" />
          </mxGeometry>
        </mxCell>
        <mxCell id="6VvXkrOFJKi1Wz3Xu7Vn-22" value="" style="endArrow=none;dashed=1;html=1;rounded=0;entryX=0;entryY=0.5;entryDx=0;entryDy=0;" edge="1" parent="1" source="6VvXkrOFJKi1Wz3Xu7Vn-1" target="6VvXkrOFJKi1Wz3Xu7Vn-5">
          <mxGeometry width="50" height="50" relative="1" as="geometry">
            <mxPoint x="400" y="290" as="sourcePoint" />
            <mxPoint x="680" y="150" as="targetPoint" />
          </mxGeometry>
        </mxCell>
        <mxCell id="6VvXkrOFJKi1Wz3Xu7Vn-23" value="" style="endArrow=none;dashed=1;html=1;rounded=0;entryX=1;entryY=0.5;entryDx=0;entryDy=0;" edge="1" parent="1" target="6VvXkrOFJKi1Wz3Xu7Vn-6">
          <mxGeometry width="50" height="50" relative="1" as="geometry">
            <mxPoint x="370" y="320" as="sourcePoint" />
            <mxPoint x="770" y="329" as="targetPoint" />
          </mxGeometry>
        </mxCell>
        <mxCell id="6VvXkrOFJKi1Wz3Xu7Vn-24" value="" style="endArrow=none;dashed=1;html=1;rounded=0;entryX=1;entryY=0.5;entryDx=0;entryDy=0;" edge="1" parent="1" target="6VvXkrOFJKi1Wz3Xu7Vn-6">
          <mxGeometry width="50" height="50" relative="1" as="geometry">
            <mxPoint x="600" y="510" as="sourcePoint" />
            <mxPoint x="700" y="790" as="targetPoint" />
          </mxGeometry>
        </mxCell>
        <mxCell id="6VvXkrOFJKi1Wz3Xu7Vn-25" value="" style="endArrow=none;dashed=1;html=1;rounded=0;entryX=1;entryY=0.5;entryDx=0;entryDy=0;exitX=0.022;exitY=0.89;exitDx=0;exitDy=0;exitPerimeter=0;" edge="1" parent="1" source="6VvXkrOFJKi1Wz3Xu7Vn-11">
          <mxGeometry width="50" height="50" relative="1" as="geometry">
            <mxPoint x="775" y="430" as="sourcePoint" />
            <mxPoint x="645" y="520" as="targetPoint" />
          </mxGeometry>
        </mxCell>
        <mxCell id="6VvXkrOFJKi1Wz3Xu7Vn-26" value="" style="endArrow=none;dashed=1;html=1;rounded=0;" edge="1" parent="1" source="6VvXkrOFJKi1Wz3Xu7Vn-1" target="6VvXkrOFJKi1Wz3Xu7Vn-10">
          <mxGeometry width="50" height="50" relative="1" as="geometry">
            <mxPoint x="198.79999999999995" y="189" as="sourcePoint" />
            <mxPoint x="132.79999999999995" y="100" as="targetPoint" />
          </mxGeometry>
        </mxCell>
        <mxCell id="6VvXkrOFJKi1Wz3Xu7Vn-27" value="Ruter A" style="text;html=1;strokeColor=none;fillColor=none;align=center;verticalAlign=middle;whiteSpace=wrap;rounded=0;" vertex="1" parent="1">
          <mxGeometry x="199.99999999999994" y="70" width="60" height="30" as="geometry" />
        </mxCell>
        <mxCell id="6VvXkrOFJKi1Wz3Xu7Vn-28" value="Ruter B" style="text;html=1;strokeColor=none;fillColor=none;align=center;verticalAlign=middle;whiteSpace=wrap;rounded=0;" vertex="1" parent="1">
          <mxGeometry x="690" y="75.9" width="60" height="30" as="geometry" />
        </mxCell>
        <mxCell id="6VvXkrOFJKi1Wz3Xu7Vn-29" value="Ruter C" style="text;html=1;strokeColor=none;fillColor=none;align=center;verticalAlign=middle;whiteSpace=wrap;rounded=0;" vertex="1" parent="1">
          <mxGeometry x="70" y="310" width="60" height="30" as="geometry" />
        </mxCell>
        <mxCell id="6VvXkrOFJKi1Wz3Xu7Vn-31" value="Ruter D" style="text;html=1;strokeColor=none;fillColor=none;align=center;verticalAlign=middle;whiteSpace=wrap;rounded=0;" vertex="1" parent="1">
          <mxGeometry x="344" y="240" width="60" height="30" as="geometry" />
        </mxCell>
        <mxCell id="6VvXkrOFJKi1Wz3Xu7Vn-32" value="Ruter E" style="text;html=1;strokeColor=none;fillColor=none;align=center;verticalAlign=middle;whiteSpace=wrap;rounded=0;" vertex="1" parent="1">
          <mxGeometry x="510" y="300" width="60" height="30" as="geometry" />
        </mxCell>
        <mxCell id="6VvXkrOFJKi1Wz3Xu7Vn-33" value="Ruter H" style="text;html=1;strokeColor=none;fillColor=none;align=center;verticalAlign=middle;whiteSpace=wrap;rounded=0;" vertex="1" parent="1">
          <mxGeometry x="210" y="585" width="60" height="30" as="geometry" />
        </mxCell>
        <mxCell id="6VvXkrOFJKi1Wz3Xu7Vn-34" value="Ruter G" style="text;html=1;strokeColor=none;fillColor=none;align=center;verticalAlign=middle;whiteSpace=wrap;rounded=0;" vertex="1" parent="1">
          <mxGeometry x="404" y="640" width="60" height="30" as="geometry" />
        </mxCell>
        <mxCell id="6VvXkrOFJKi1Wz3Xu7Vn-35" value="Ruter F" style="text;html=1;strokeColor=none;fillColor=none;align=center;verticalAlign=middle;whiteSpace=wrap;rounded=0;" vertex="1" parent="1">
          <mxGeometry x="600" y="430" width="60" height="30" as="geometry" />
        </mxCell>
        <mxCell id="6VvXkrOFJKi1Wz3Xu7Vn-36" value="100Mb/s" style="text;html=1;strokeColor=none;fillColor=none;align=center;verticalAlign=middle;whiteSpace=wrap;rounded=0;" vertex="1" parent="1">
          <mxGeometry x="400" y="91.8" width="60" height="30" as="geometry" />
        </mxCell>
        <mxCell id="6VvXkrOFJKi1Wz3Xu7Vn-37" value="10Mb/s" style="text;html=1;strokeColor=none;fillColor=none;align=center;verticalAlign=middle;whiteSpace=wrap;rounded=0;" vertex="1" parent="1">
          <mxGeometry x="110" y="230" width="60" height="30" as="geometry" />
        </mxCell>
        <mxCell id="6VvXkrOFJKi1Wz3Xu7Vn-38" value="2Mb/s" style="text;html=1;strokeColor=none;fillColor=none;align=center;verticalAlign=middle;whiteSpace=wrap;rounded=0;" vertex="1" parent="1">
          <mxGeometry x="284" y="190" width="60" height="30" as="geometry" />
        </mxCell>
        <mxCell id="6VvXkrOFJKi1Wz3Xu7Vn-39" value="300Mb/s" style="text;html=1;strokeColor=none;fillColor=none;align=center;verticalAlign=middle;whiteSpace=wrap;rounded=0;" vertex="1" parent="1">
          <mxGeometry x="464" y="190" width="60" height="30" as="geometry" />
        </mxCell>
        <mxCell id="6VvXkrOFJKi1Wz3Xu7Vn-40" value="7Mb/s" style="text;html=1;strokeColor=none;fillColor=none;align=center;verticalAlign=middle;whiteSpace=wrap;rounded=0;" vertex="1" parent="1">
          <mxGeometry x="580" y="230" width="60" height="30" as="geometry" />
        </mxCell>
        <mxCell id="6VvXkrOFJKi1Wz3Xu7Vn-41" value="6Mb/s" style="text;html=1;strokeColor=none;fillColor=none;align=center;verticalAlign=middle;whiteSpace=wrap;rounded=0;" vertex="1" parent="1">
          <mxGeometry x="520" y="420" width="60" height="30" as="geometry" />
        </mxCell>
        <mxCell id="6VvXkrOFJKi1Wz3Xu7Vn-42" value="100b/s" style="text;html=1;strokeColor=none;fillColor=none;align=center;verticalAlign=middle;whiteSpace=wrap;rounded=0;" vertex="1" parent="1">
          <mxGeometry x="354" y="450" width="60" height="30" as="geometry" />
        </mxCell>
        <mxCell id="6VvXkrOFJKi1Wz3Xu7Vn-43" value="100Mb/s" style="text;html=1;strokeColor=none;fillColor=none;align=center;verticalAlign=middle;whiteSpace=wrap;rounded=0;" vertex="1" parent="1">
          <mxGeometry x="240" y="410" width="60" height="30" as="geometry" />
        </mxCell>
        <mxCell id="6VvXkrOFJKi1Wz3Xu7Vn-44" value="100Mb/s" style="text;html=1;strokeColor=none;fillColor=none;align=center;verticalAlign=middle;whiteSpace=wrap;rounded=0;" vertex="1" parent="1">
          <mxGeometry x="110" y="450" width="60" height="30" as="geometry" />
        </mxCell>
        <mxCell id="6VvXkrOFJKi1Wz3Xu7Vn-45" value="5Gb/s" style="text;html=1;strokeColor=none;fillColor=none;align=center;verticalAlign=middle;whiteSpace=wrap;rounded=0;" vertex="1" parent="1">
          <mxGeometry x="294" y="580" width="60" height="30" as="geometry" />
        </mxCell>
        <mxCell id="6VvXkrOFJKi1Wz3Xu7Vn-46" value="15Mb/s" style="text;html=1;strokeColor=none;fillColor=none;align=center;verticalAlign=middle;whiteSpace=wrap;rounded=0;" vertex="1" parent="1">
          <mxGeometry x="530" y="560" width="60" height="30" as="geometry" />
        </mxCell>
      </root>
    </mxGraphModel>
  </diagram>
</mxfile>
